# xmcd
#
# Track frame offsets: 
#        150
#        17081
#        33632
#        56545
#        75160
#        92885
#        113576
#        130024
#        140561
#        153152
#        165425
#        186591
#        204174
#        223120
#        240569
#        258676
#        269984
#        281650
#        293115
#        304942
#
# Disc length: 4233 seconds
#
# Revision: 0
# Processed by: cddbd v1.5.2PL0 Copyright (c) Steve Scherf et al.
# Submitted via: ExactAudioCopy v1.0b2
#
DISCID=25108714
DTITLE=Various Artist - The Best Hits 100 Female Vocal
DYEAR=1900
DGENRE=Pop
TTITLE0=Nana Mouskouri - Amapola
TTITLE1=Hayley Westenra - Amazing Grace
TTITLE2=Sissel Feat. Zamfir - Summer Snow
TTITLE3=Diana Ross - If We Hold On Together
TTITLE4=Shanice - Lovin' You
TTITLE5=Jamie O'Neal - All By Myself
TTITLE6=Vanessa Williams - Save The Best For Last
TTITLE7=Jane Birkin - L'aquoiboniste
TTITLE8=Stan Getz and Astrud Gilberto - The Girl From Ipanema
TTITLE9=Dusty Springfield - Spooky
TTITLE10=Swing Out Sister - Now You're Not Here
TTITLE11=Charlene - I've Never Been To Me
TTITLE12=Olivia Newton-John - Don't Stop Believin' (Bossa Nova Version
TTITLE12=)
TTITLE13=Suzanne Vega - Luka
TTITLE14=Sheena Easton - My Cherie
TTITLE15=France Gall - Poupee De Cire, Poupee De Son
TTITLE16=The Supremes - Baby Love
TTITLE17=Daniele Vidal - Les Champs-Elisees
TTITLE18=Sylvie Vartan - La Plus Belle Pour Aller Danser
TTITLE19=Judy Garland - Over The Rainbow
EXTD=
EXTT0=
EXTT1=
EXTT2=
EXTT3=
EXTT4=
EXTT5=
EXTT6=
EXTT7=
EXTT8=
EXTT9=
EXTT10=
EXTT11=
EXTT12=
EXTT13=
EXTT14=
EXTT15=
EXTT16=
EXTT17=
EXTT18=
EXTT19=
PLAYORDER=
